<mxfile host="app.diagrams.net" modified="2024-02-12T10:48:44.943Z" agent="Mozilla/5.0 (Windows NT 10.0; Win64; x64) AppleWebKit/537.36 (KHTML, like Gecko) Chrome/119.0.0.0 Safari/537.36" version="21.6.2" etag="3FJYS5LH4IYPT9y4h6Bj" type="github">
  <diagram name="第 1 页" id="sMx0_PkHJlOUNzF7TQry">
    <mxGraphModel>
      <root>
        <mxCell id="0" />
        <mxCell id="1" parent="0" />
      </root>
    </mxGraphModel>
  </diagram>
</mxfile>
